<?xml version="1.0" standalone="no"?>
<!DOCTYPE svg PUBLIC "-//W3C//DTD SVG 20010904//EN"
 "http://www.w3.org/TR/2001/REC-SVG-20010904/DTD/svg10.dtd">
<svg version="1.0" xmlns="http://www.w3.org/2000/svg"
 width="260.000000pt" height="260.000000pt" viewBox="0 0 260.000000 260.000000"
 preserveAspectRatio="xMidYMid meet">
<metadata>
Created by potrace 1.11, written by Peter Selinger 2001-2013
</metadata>
<g transform="translate(0.000000,260.000000) scale(0.100000,-0.100000)"
fill="#000000" stroke="none">
<path d="M1199 2379 c-47 -50 -38 -86 27 -120 75 -40 101 -78 72 -107 -27 -27
-75 -6 -91 41 -4 9 -13 17 -22 17 -22 0 -21 -88 1 -97 9 -3 20 0 25 8 6 11 11
11 21 1 17 -17 74 -15 103 4 22 14 25 14 25 1 0 -10 13 -16 38 -20 45 -5 65 9
38 28 -15 11 -16 19 -9 42 8 24 15 28 55 31 49 3 62 -6 73 -51 6 -24 4 -29
-14 -34 -39 -10 -18 -33 52 -58 37 -13 75 -29 83 -35 21 -19 18 -7 -30 93 -24
51 -51 108 -59 127 -9 19 -27 61 -41 93 -15 32 -31 57 -37 55 -6 -2 -38 -55
-70 -118 -70 -136 -79 -147 -77 -97 2 44 -34 88 -94 114 -44 19 -53 36 -31 58
25 26 66 15 83 -23 20 -41 30 -32 30 27 l0 46 -61 2 c-57 2 -63 0 -90 -28z
m314 -131 c-7 -13 -53 -9 -53 5 0 7 7 23 16 36 l17 24 12 -29 c7 -16 10 -32 8
-36z"/>
<path d="M257 2393 c-10 -10 -8 -63 2 -63 5 0 11 7 15 15 3 10 19 15 42 15
l37 0 -6 -282 c-4 -156 -7 -309 -7 -340 0 -45 -4 -61 -21 -77 -32 -29 -15 -41
57 -41 74 0 92 17 53 49 l-23 18 3 334 c1 184 5 337 7 341 10 15 44 8 54 -12
13 -25 30 -26 30 -2 0 25 7 31 31 25 18 -5 19 -17 19 -348 0 -292 -2 -344 -15
-355 -19 -16 -20 -50 -1 -50 7 0 21 21 31 46 9 25 33 66 52 91 l34 45 -20 19
c-19 18 -21 31 -21 150 l0 130 58 -3 57 -3 3 -77 c3 -69 1 -79 -18 -90 -12 -8
-20 -23 -20 -40 0 -32 15 -37 29 -9 6 10 33 36 61 57 55 42 60 53 30 72 -19
11 -20 23 -20 182 0 160 1 170 20 180 33 18 13 30 -51 30 -61 0 -75 -11 -41
-36 15 -11 17 -27 14 -114 -1 -56 -5 -106 -8 -111 -3 -5 -30 -9 -60 -9 l-54 0
0 119 c0 110 1 119 20 124 11 3 20 10 20 16 0 16 -123 14 -139 -1 -11 -10 -14
-10 -18 0 -3 8 -36 12 -117 12 -62 0 -116 -3 -119 -7z"/>
<path d="M850 2393 c0 -4 7 -17 15 -27 12 -15 15 -52 15 -161 0 -109 -3 -146
-15 -161 -14 -19 -20 -54 -9 -54 3 0 35 18 71 40 37 22 82 43 102 46 58 11 71
21 71 57 -1 31 -1 32 -18 12 -18 -22 -121 -49 -135 -35 -4 4 -7 34 -5 66 l3
59 37 3 c29 3 38 -1 43 -17 12 -40 25 -21 24 37 0 55 -1 56 -16 35 -11 -16
-26 -23 -48 -23 -37 0 -43 10 -35 60 4 31 9 35 37 38 23 2 37 -3 50 -17 25
-30 35 -26 31 12 l-3 32 -107 3 c-60 1 -108 -1 -108 -5z"/>
<path d="M1660 2386 c0 -7 9 -16 20 -19 19 -5 20 -14 20 -176 l0 -171 38 -15
c20 -9 51 -30 69 -47 24 -23 34 -28 37 -17 25 76 33 119 22 119 -6 0 -17 -14
-24 -32 l-11 -31 -33 25 -33 26 -3 161 c-2 156 -2 161 18 161 11 0 20 7 20 15
0 12 -14 15 -70 15 -53 0 -70 -3 -70 -14z"/>
<path d="M1832 2388 c-14 -14 -17 -68 -4 -68 5 0 17 9 27 20 10 11 29 20 42
20 l23 0 0 -219 c0 -210 -1 -221 -20 -234 -20 -14 -19 -17 41 -101 34 -48 66
-89 70 -92 5 -3 9 11 9 30 0 19 -6 39 -14 43 -21 12 -29 560 -9 568 24 8 31 6
52 -17 18 -18 21 -19 27 -5 3 8 4 26 2 39 -3 22 -6 23 -118 26 -81 2 -119 -1
-128 -10z"/>
<path d="M2100 2385 c0 -8 4 -15 9 -15 5 0 30 -64 55 -142 l46 -143 0 -196 c0
-183 -1 -197 -20 -214 -37 -34 -26 -45 45 -45 57 0 65 2 65 19 0 10 -7 21 -15
25 -13 4 -15 38 -15 214 l0 209 44 134 c33 99 50 137 65 144 36 17 23 25 -39
25 -55 0 -75 -10 -51 -25 8 -4 -8 -55 -46 -142 -9 -23 -21 -4 -28 44 -4 27
-11 56 -16 66 -8 14 -5 19 16 27 46 17 27 30 -45 30 -56 0 -70 -3 -70 -15z"/>
<path d="M1455 2027 c-84 -31 -132 -58 -191 -109 -71 -61 -142 -112 -184 -132
-19 -9 -60 -36 -89 -61 -30 -24 -69 -49 -85 -56 -86 -32 -132 -53 -159 -73
-55 -40 -89 -146 -51 -160 9 -3 45 -6 81 -6 61 0 64 -1 61 -22 -2 -16 -32 -43
-100 -89 -54 -36 -119 -85 -145 -107 -26 -23 -56 -49 -65 -57 -24 -20 -23 -29
13 -69 16 -19 33 -51 36 -70 9 -58 35 -73 153 -90 58 -8 151 -18 207 -21 121
-8 135 -18 105 -69 l-21 -35 27 -28 c14 -15 32 -27 39 -25 11 2 19 -38 14 -70
-2 -12 27 -10 34 2 12 19 25 10 25 -16 0 -20 4 -25 16 -20 9 3 20 6 25 6 5 0
9 7 9 15 0 8 9 23 20 32 11 10 20 29 20 43 0 14 5 32 10 40 7 11 10 2 10 -32
0 -27 4 -48 9 -48 21 0 21 -51 1 -78 -16 -21 -20 -40 -18 -73 3 -39 7 -46 35
-59 18 -8 33 -23 33 -32 0 -9 5 -20 10 -23 6 -4 10 6 10 22 0 32 43 63 88 63
14 0 33 6 41 14 9 8 46 30 82 49 119 61 174 105 311 245 132 135 137 138 153
120 9 -11 18 -18 20 -16 6 6 -64 148 -91 183 -13 17 -24 35 -24 38 0 4 16 7
36 7 42 0 74 15 74 35 0 8 -20 55 -44 105 -25 49 -56 123 -69 163 -14 41 -41
106 -61 144 -36 73 -59 156 -71 258 -9 76 -23 98 -82 128 -27 14 -61 32 -78
41 -41 22 -109 19 -180 -7z m189 -26 c32 -21 59 -59 82 -111 8 -19 25 -51 38
-70 13 -19 27 -57 31 -85 4 -27 11 -58 16 -67 8 -15 5 -18 -15 -18 -14 0 -33
8 -43 19 -20 21 -60 31 -153 37 -46 4 -85 15 -135 38 -75 36 -110 46 -184 52
-25 2 -60 6 -78 10 l-32 6 82 67 c94 77 142 106 227 134 39 14 136 6 164 -12z
m103 -53 c6 -7 13 -28 17 -47 7 -40 6 -40 -22 17 -20 39 -17 58 5 30z m-467
-183 c19 -1 50 -3 68 -4 25 -1 32 -5 32 -22 0 -17 4 -20 29 -14 21 4 45 -2 89
-23 48 -23 70 -29 104 -25 31 3 57 -2 93 -17 28 -12 70 -28 95 -34 41 -11 48
-17 72 -66 14 -30 34 -75 43 -100 22 -57 39 -98 80 -185 29 -63 30 -70 14 -73
-33 -6 -118 39 -150 80 -35 44 -85 72 -144 82 -43 8 -109 29 -165 54 -39 17
-100 19 -205 7 -60 -6 -77 -5 -115 12 -127 55 -129 56 -162 48 -31 -7 -358
-14 -358 -7 0 1 6 17 14 35 18 41 60 79 114 100 109 43 129 54 165 86 21 19
59 45 85 58 40 20 56 23 107 18 33 -4 76 -8 95 -10z m-265 -331 c23 -16 106
-19 121 -4 11 11 69 -4 89 -21 5 -5 17 -9 26 -9 10 0 20 -4 23 -8 9 -14 -14
-83 -30 -89 -9 -3 -11 -10 -5 -21 6 -11 3 -29 -12 -57 -14 -28 -21 -60 -21
-108 -1 -65 -2 -69 -31 -83 -17 -8 -43 -36 -60 -62 -28 -44 -33 -47 -77 -50
-55 -4 -63 9 -15 23 22 7 32 16 32 30 0 32 -28 28 -83 -10 -58 -40 -70 -41
-223 -23 -113 12 -145 29 -155 84 -5 27 -1 38 25 64 37 39 38 47 9 77 -21 22
-21 23 -2 44 10 12 55 46 100 75 100 67 134 97 134 123 0 45 8 49 73 44 34 -3
71 -12 82 -19z m95 16 c0 -5 -16 -10 -35 -10 -19 0 -35 5 -35 10 0 6 16 10 35
10 19 0 35 -4 35 -10z m455 -66 c146 -48 160 -55 142 -69 -7 -5 -12 -16 -9
-23 2 -7 -6 -20 -19 -30 -20 -17 -21 -20 -6 -43 8 -13 20 -56 27 -96 15 -92
21 -253 9 -253 -5 0 -9 -7 -9 -15 0 -8 -4 -15 -8 -15 -16 0 -32 25 -32 51 0
15 -5 29 -11 31 -6 2 -5 14 5 33 9 16 21 54 27 84 11 51 10 55 -12 71 -17 14
-24 32 -30 80 -10 86 -28 101 -22 17 4 -42 2 -67 -6 -71 -16 -11 -13 -29 4
-22 9 3 15 0 15 -8 0 -7 7 -19 15 -26 34 -29 8 -137 -32 -133 -15 2 -23 -4
-26 -20 l-4 -22 -8 23 c-7 21 -12 24 -45 26 -8 1 -15 11 -15 25 0 13 -6 26
-12 28 -9 3 -13 -6 -13 -25 0 -16 -9 -39 -20 -52 -11 -13 -20 -29 -20 -37 0
-19 40 -16 63 5 20 17 20 16 14 -16 -8 -41 -45 -94 -61 -89 -6 2 -21 23 -34
47 -19 37 -23 55 -19 105 3 33 8 74 12 90 7 26 6 28 -7 18 -8 -7 -25 -35 -39
-62 -13 -28 -29 -49 -36 -46 -6 2 -18 -10 -26 -26 l-14 -30 -16 43 c-10 24
-17 60 -17 80 0 39 17 59 31 37 10 -17 27 25 36 88 6 44 -10 62 -22 24 -3 -11
-12 -22 -20 -25 -8 -3 -15 -16 -15 -29 0 -24 -35 -65 -46 -54 -13 12 -6 123 9
157 28 62 34 68 51 45 14 -18 15 -13 9 58 -5 71 -4 77 13 78 10 0 35 6 54 13
54 21 77 19 195 -20z m241 -106 c45 -48 81 -102 112 -167 l21 -44 -92 -94
c-64 -66 -93 -90 -95 -78 -2 9 1 22 7 28 7 9 6 31 -5 72 -8 33 -16 71 -18 85
-5 42 -17 93 -28 123 -9 23 -8 30 8 42 11 7 19 17 19 22 2 18 17 53 24 53 4 0
25 -19 47 -42z m-1188 -140 c2 -9 -6 -26 -18 -38 l-20 -20 -25 26 c-20 21 -23
30 -13 41 16 19 72 13 76 -9z m1366 -109 c19 -39 24 -31 -124 -188 -119 -126
-182 -176 -287 -230 -68 -36 -96 -37 -101 -5 -3 24 50 62 103 73 17 4 35 17
42 30 15 31 63 70 86 71 11 0 17 8 17 25 0 28 3 30 30 13 24 -15 37 -4 20 16
-10 13 4 32 86 121 54 58 102 105 106 105 3 0 14 -14 22 -31z m-753 -36 c6
-15 15 -34 22 -41 6 -8 18 -35 27 -61 16 -45 50 -70 50 -36 0 18 21 16 28 -3
2 -7 -4 -12 -13 -12 -14 0 -16 -5 -9 -27 4 -16 8 -46 7 -68 -1 -35 0 -38 12
-22 13 18 14 17 20 -3 4 -11 15 -29 25 -38 19 -17 18 -19 -16 -56 -44 -48 -69
-45 -70 9 -2 87 -4 106 -13 101 -5 -3 -14 21 -20 54 -14 70 -62 146 -109 171
l-33 17 22 21 c31 29 57 27 70 -6z m-43 -68 c29 -25 68 -92 59 -102 -3 -2 -17
16 -32 41 -31 53 -45 58 -45 18 0 -36 -31 -67 -48 -50 -9 9 -12 5 -12 -17 0
-27 0 -28 -20 -10 -19 17 -20 17 -20 0 0 -14 -3 -16 -11 -8 -8 8 -7 17 5 34 9
13 16 34 16 46 0 26 38 70 62 72 9 1 30 -10 46 -24z m439 -51 c3 -9 1 -19 -4
-23 -16 -10 -32 -68 -26 -91 6 -22 6 -22 -16 -4 -24 21 -30 84 -7 84 8 0 17
11 20 25 7 28 24 33 33 9z m-201 -65 c10 -23 25 -48 32 -56 13 -12 12 -15 -7
-20 -11 -3 -21 -12 -21 -20 0 -8 -4 -11 -10 -8 -5 3 -10 14 -10 23 0 9 -12 29
-27 45 -19 20 -24 31 -15 34 6 3 12 13 12 24 0 33 26 21 46 -22z m254 3 c0
-14 -39 -46 -47 -39 -3 4 2 16 12 27 19 21 35 26 35 12z m-120 -78 c0 -13 -3
-14 -14 -5 -7 6 -21 9 -30 5 -12 -5 -16 0 -16 23 0 47 20 58 42 23 10 -17 18
-38 18 -46z m-404 27 c1 -1 13 6 25 18 38 35 62 25 40 -17 -5 -9 -12 -25 -15
-35 -5 -15 -9 -16 -26 -7 -16 8 -25 8 -35 0 -11 -9 -15 -5 -20 24 -8 42 3 67
18 40 5 -11 11 -21 13 -23z m344 -84 c0 -10 -4 -15 -10 -12 -5 3 -10 18 -10
33 0 21 2 24 10 12 5 -8 10 -23 10 -33z m-46 -83 c10 -26 7 -34 -13 -34 -20 0
-35 25 -25 41 9 14 31 10 38 -7z m-54 -34 c0 -22 -52 -60 -82 -60 -20 0 -48
37 -48 62 0 15 9 18 65 18 58 0 65 -2 65 -20z"/>
<path d="M1632 1308 c5 -32 28 -35 28 -4 0 17 -5 26 -16 26 -10 0 -14 -7 -12
-22z"/>
<path d="M1240 1151 c0 -5 6 -14 14 -20 11 -9 15 -8 20 5 9 23 8 24 -14 24
-11 0 -20 -4 -20 -9z"/>
<path d="M2221 1572 c-10 -10 -11 -19 -4 -31 12 -19 54 -21 61 -3 3 9 -2 10
-22 2 -22 -8 -26 -7 -26 10 0 15 5 18 28 14 21 -4 25 -3 15 7 -18 18 -36 19
-52 1z"/>
<path d="M2085 923 c-4 -12 1 -24 14 -35 20 -16 21 -25 21 -362 l0 -346 -25
-10 c-14 -5 -25 -12 -25 -15 0 -3 63 -5 140 -5 l139 0 16 30 c16 31 20 70 8
70 -5 0 -18 -16 -31 -36 -23 -34 -24 -35 -85 -32 l-62 3 -3 153 -3 152 40 0
c30 0 43 -5 51 -20 19 -35 30 -22 30 35 0 52 -14 73 -26 40 -4 -10 -20 -15
-49 -15 l-42 0 -6 98 c-9 122 -9 216 -1 236 10 25 100 22 116 -4 7 -11 18 -20
25 -20 17 0 17 56 1 67 -7 4 -55 9 -106 9 -54 1 -99 7 -105 13 -15 15 -24 14
-32 -6z"/>
<path d="M250 901 c0 -5 9 -13 20 -16 20 -6 20 -15 20 -362 0 -346 0 -355 -20
-360 -59 -16 21 -39 100 -30 155 19 180 73 180 401 0 254 -11 313 -69 352 -32
21 -46 24 -133 24 -54 0 -98 -4 -98 -9z m188 -44 c7 -6 21 -27 30 -46 14 -30
17 -73 17 -271 0 -312 -14 -359 -107 -364 l-33 -1 -3 305 c-3 336 0 387 26
392 22 5 53 -2 70 -15z"/>
<path d="M2017 837 c-22 -45 -62 -103 -95 -139 l-57 -61 23 -15 c22 -14 22
-18 22 -228 0 -131 -4 -215 -10 -219 -24 -15 -6 -25 45 -25 53 0 72 11 40 24
-12 4 -15 31 -15 155 l0 151 27 6 c21 6 30 2 41 -14 23 -34 32 -26 32 27 0 55
-13 73 -30 41 -7 -13 -21 -20 -40 -20 l-30 0 0 85 c0 76 3 89 29 129 28 45 41
50 41 14 0 -20 1 -21 24 -12 8 3 12 12 9 20 -3 7 -8 46 -12 86 l-6 73 -38 -78z"/>
<path d="M651 615 c-56 -51 -74 -117 -69 -253 4 -136 27 -186 100 -216 45 -18
49 -18 90 -2 54 21 74 48 94 128 19 74 12 227 -13 290 -23 57 -65 88 -119 88
-36 0 -51 -6 -83 -35z m128 -29 c29 -31 44 -146 35 -265 -7 -96 -17 -118 -58
-136 -43 -19 -90 6 -111 57 -20 51 -20 203 1 274 25 87 87 119 133 70z"/>
<path d="M1704 544 c-7 -3 -42 -82 -79 -177 -39 -100 -77 -181 -91 -193 -28
-27 -22 -34 27 -34 37 0 38 1 33 29 -4 18 2 46 15 76 12 26 21 54 21 61 0 10
14 14 49 14 54 0 52 3 71 -85 10 -46 10 -50 -12 -67 -23 -17 -22 -18 55 -18
l77 0 -16 25 c-8 13 -36 91 -60 172 -62 207 -62 208 -90 197z m9 -145 c2 -35
-1 -44 -17 -47 -33 -7 -40 13 -20 62 22 52 34 47 37 -15z"/>
<path d="M995 466 c-43 -19 -80 -64 -97 -117 -12 -38 -12 -55 -2 -100 14 -61
43 -92 104 -110 34 -10 47 -9 92 8 52 20 53 21 56 64 2 31 9 49 25 61 30 23
17 31 -44 29 -58 -1 -72 -8 -46 -22 20 -12 24 -78 5 -97 -7 -7 -26 -12 -43
-12 -80 0 -125 132 -72 211 42 62 146 63 155 1 2 -15 9 -22 19 -20 12 2 16 15
16 44 0 49 -10 69 -26 55 -8 -6 -21 -5 -37 4 -31 18 -67 18 -105 1z"/>
<path d="M1494 446 c-4 -11 -18 -13 -57 -10 -95 9 -166 -57 -167 -154 0 -126
136 -199 225 -121 19 17 35 37 35 45 0 19 -3 18 -46 -11 -90 -61 -167 1 -150
119 4 24 16 53 27 64 43 47 120 39 129 -12 3 -16 11 -31 18 -34 9 -3 12 13 12
57 0 57 -14 89 -26 57z"/>
</g>
</svg>
